<?xml version="1.0" encoding="UTF-8" standalone="no"?>
<!-- Created with Inkscape (http://www.inkscape.org/) -->

<svg
   width="128"
   height="128"
   viewBox="0 0 33.866666 33.866666"
   version="1.1"
   id="svg1"
   inkscape:version="1.3.2 (091e20ef0f, 2023-11-25)"
   sodipodi:docname="favicon.svg"
   xmlns:inkscape="http://www.inkscape.org/namespaces/inkscape"
   xmlns:sodipodi="http://sodipodi.sourceforge.net/DTD/sodipodi-0.dtd"
   xmlns:xlink="http://www.w3.org/1999/xlink"
   xmlns="http://www.w3.org/2000/svg"
   xmlns:svg="http://www.w3.org/2000/svg">
  <sodipodi:namedview
     id="namedview1"
     pagecolor="#ffffff"
     bordercolor="#000000"
     borderopacity="0.25"
     inkscape:showpageshadow="2"
     inkscape:pageopacity="0.0"
     inkscape:pagecheckerboard="0"
     inkscape:deskcolor="#d1d1d1"
     inkscape:document-units="px"
     showguides="true"
     inkscape:zoom="5.8867564"
     inkscape:cx="49.517931"
     inkscape:cy="63.617376"
     inkscape:window-width="1920"
     inkscape:window-height="1080"
     inkscape:window-x="2411"
     inkscape:window-y="2160"
     inkscape:window-maximized="1"
     inkscape:current-layer="layer1">
    <sodipodi:guide
       position="16.933333,34.015065"
       orientation="-1,0"
       id="guide1"
       inkscape:locked="false"
       inkscape:label=""
       inkscape:color="rgb(0,134,229)" />
    <sodipodi:guide
       position="16.933333,16.933333"
       orientation="-0.5,0.8660254"
       id="guide2"
       inkscape:locked="false"
       inkscape:label=""
       inkscape:color="rgb(0,134,229)" />
    <sodipodi:guide
       position="16.933333,16.933333"
       orientation="0.5,0.8660254"
       id="guide3"
       inkscape:locked="false"
       inkscape:label=""
       inkscape:color="rgb(0,134,229)" />
    <sodipodi:guide
       position="16.933333,29.147386"
       orientation="-1,0"
       id="guide4"
       inkscape:locked="false"
       inkscape:label=""
       inkscape:color="rgb(0,134,229)" />
    <sodipodi:guide
       position="16.933333,16.933333"
       orientation="0.8660254,0.5"
       id="guide5"
       inkscape:locked="false"
       inkscape:label=""
       inkscape:color="rgb(0,134,229)" />
  </sodipodi:namedview>
  <defs
     id="defs1">
    <linearGradient
       id="linearGradient20"
       inkscape:collect="always">
      <stop
         style="stop-color:#50c1d7;stop-opacity:1;"
         offset="0"
         id="stop20" />
      <stop
         style="stop-color:#b2c0d0;stop-opacity:1;"
         offset="0.22895369"
         id="stop45" />
      <stop
         style="stop-color:#0a859c;stop-opacity:1;"
         offset="0.5"
         id="stop43" />
      <stop
         style="stop-color:#63b5c6;stop-opacity:1;"
         offset="0.75"
         id="stop44" />
      <stop
         style="stop-color:#36d3f1;stop-opacity:1;"
         offset="1"
         id="stop21" />
    </linearGradient>
    <linearGradient
       inkscape:collect="always"
       xlink:href="#linearGradient20"
       id="linearGradient21"
       x1="5.3722415"
       y1="2.8249729"
       x2="30.610884"
       y2="31.413792"
       gradientUnits="userSpaceOnUse" />
    <linearGradient
       inkscape:collect="always"
       xlink:href="#linearGradient20"
       id="linearGradient22"
       x1="10.496266"
       y1="-0.13353369"
       x2="22.635588"
       y2="36.018181"
       gradientUnits="userSpaceOnUse" />
    <linearGradient
       inkscape:collect="always"
       xlink:href="#linearGradient20"
       id="linearGradient23"
       x1="23.37048"
       y1="-0.13187853"
       x2="11.231158"
       y2="36.019836"
       gradientUnits="userSpaceOnUse" />
    <linearGradient
       inkscape:collect="always"
       xlink:href="#linearGradient20"
       id="linearGradient24"
       x1="-1.0660201"
       y1="13.976496"
       x2="36.311943"
       y2="21.539392"
       gradientUnits="userSpaceOnUse" />
    <linearGradient
       inkscape:collect="always"
       xlink:href="#linearGradient20"
       id="linearGradient25"
       x1="34.932632"
       y1="13.974823"
       x2="-2.4453304"
       y2="21.53772"
       gradientUnits="userSpaceOnUse" />
    <linearGradient
       inkscape:collect="always"
       xlink:href="#linearGradient20"
       id="linearGradient26"
       x1="5.3725648"
       y1="31.04212"
       x2="30.611206"
       y2="2.453301"
       gradientUnits="userSpaceOnUse" />
    <linearGradient
       inkscape:collect="always"
       xlink:href="#linearGradient20"
       id="linearGradient27"
       x1="28.49345"
       y1="31.041201"
       x2="3.2548084"
       y2="2.452383"
       gradientUnits="userSpaceOnUse" />
    <linearGradient
       inkscape:collect="always"
       xlink:href="#linearGradient20"
       id="linearGradient28"
       x1="23.371052"
       y1="33.999474"
       x2="11.23173"
       y2="-2.1522403"
       gradientUnits="userSpaceOnUse" />
    <linearGradient
       inkscape:collect="always"
       xlink:href="#linearGradient20"
       id="linearGradient29"
       x1="10.495679"
       y1="33.99971"
       x2="22.635"
       y2="-2.1520033"
       gradientUnits="userSpaceOnUse" />
    <linearGradient
       inkscape:collect="always"
       xlink:href="#linearGradient20"
       id="linearGradient30"
       x1="34.932529"
       y1="19.891836"
       x2="-2.4454353"
       y2="12.328939"
       gradientUnits="userSpaceOnUse" />
    <linearGradient
       inkscape:collect="always"
       xlink:href="#linearGradient20"
       id="linearGradient31"
       x1="-1.065255"
       y1="19.890982"
       x2="36.31271"
       y2="12.328086"
       gradientUnits="userSpaceOnUse" />
    <linearGradient
       inkscape:collect="always"
       xlink:href="#linearGradient20"
       id="linearGradient32"
       x1="28.494757"
       y1="2.8245027"
       x2="3.2561145"
       y2="31.413321"
       gradientUnits="userSpaceOnUse" />
  </defs>
  <g
     inkscape:label="Layer 1"
     inkscape:groupmode="layer"
     id="layer1">
    <path
       style="fill:url(#linearGradient32);stroke-width:0.264583;fill-opacity:1"
       sodipodi:type="inkscape:offset"
       inkscape:radius="0"
       inkscape:original="M 16.933594 0.61914062 L 15.748047 1.8359375 L 12.933594 2.5390625 L 15.738281 3.8144531 L 15.902344 6.8496094 L 14.392578 7.0253906 L 14.716797 4.9023438 L 13.464844 6.9160156 L 10.611328 5.4511719 L 13.148438 7.9101562 L 13.5625 9.7089844 L 14.085938 7.9472656 L 15.505859 8.328125 L 15.6875 10.242188 L 14.105469 11.083984 L 15.740234 11.962891 L 15.917969 15.173828 L 16.933594 16.933594 L 16.933594 0.61914062 z "
       xlink:href="#path6"
       id="path10"
       inkscape:href="#path6"
       d="m 14.630859,-2.9140625 -3.30664,1.97460938 2.318359,0.45703124 0.333984,4.08984378 -1.886718,-0.1152344 -0.558594,-2.453125 -0.367188,2.34375 -1.136718,-0.2695313 0.818359,1.2617188 0.601563,2.2246094 0.183593,-1.7675782 1.572266,-0.039062 0.181641,1.9140624 -1.046875,-0.1210937 1.277343,5.0527345 1.015625,1.761719 z"
       transform="matrix(-1,0,0,1,33.866998,4.7015e-4)"
       inkscape:transform-center-x="-2.3028055"
       inkscape:transform-center-y="-8.1564957" />
    <path
       style="fill:url(#linearGradient31);stroke-width:0.264583;fill-opacity:1"
       sodipodi:type="inkscape:offset"
       inkscape:radius="0"
       inkscape:original="M 16.933594 0.61914062 L 15.748047 1.8359375 L 12.933594 2.5390625 L 15.738281 3.8144531 L 15.902344 6.8496094 L 14.392578 7.0253906 L 14.716797 4.9023438 L 13.464844 6.9160156 L 10.611328 5.4511719 L 13.148438 7.9101562 L 13.5625 9.7089844 L 14.085938 7.9472656 L 15.505859 8.328125 L 15.6875 10.242188 L 14.105469 11.083984 L 15.740234 11.962891 L 15.917969 15.173828 L 16.933594 16.933594 L 16.933594 0.61914062 z "
       xlink:href="#path6"
       id="path11"
       inkscape:href="#path6"
       d="m 14.630859,-2.9140625 -3.30664,1.97460938 2.318359,0.45703124 0.333984,4.08984378 -1.886718,-0.1152344 -0.558594,-2.453125 -0.367188,2.34375 -1.136718,-0.2695313 0.818359,1.2617188 0.601563,2.2246094 0.183593,-1.7675782 1.572266,-0.039062 0.181641,1.9140624 -1.046875,-0.1210937 1.277343,5.0527345 1.015625,1.761719 z"
       transform="rotate(60,16.933091,16.933013)" />
    <path
       style="fill:url(#linearGradient30);stroke-width:0.264583;fill-opacity:1"
       sodipodi:type="inkscape:offset"
       inkscape:radius="0"
       inkscape:original="M 16.933594 0.61914062 L 15.748047 1.8359375 L 12.933594 2.5390625 L 15.738281 3.8144531 L 15.902344 6.8496094 L 14.392578 7.0253906 L 14.716797 4.9023438 L 13.464844 6.9160156 L 10.611328 5.4511719 L 13.148438 7.9101562 L 13.5625 9.7089844 L 14.085938 7.9472656 L 15.505859 8.328125 L 15.6875 10.242188 L 14.105469 11.083984 L 15.740234 11.962891 L 15.917969 15.173828 L 16.933594 16.933594 L 16.933594 0.61914062 z "
       xlink:href="#path6"
       id="path12"
       inkscape:href="#path6"
       d="m 14.630859,-2.9140625 -3.30664,1.97460938 2.318359,0.45703124 0.333984,4.08984378 -1.886718,-0.1152344 -0.558594,-2.453125 -0.367188,2.34375 -1.136718,-0.2695313 0.818359,1.2617188 0.601563,2.2246094 0.183593,-1.7675782 1.572266,-0.039062 0.181641,1.9140624 -1.046875,-0.1210937 1.277343,5.0527345 1.015625,1.761719 z"
       transform="matrix(-0.5,-0.8660254,-0.8660254,0.5,40.065341,23.131512)" />
    <path
       style="fill:url(#linearGradient29);stroke-width:0.264583;fill-opacity:1"
       sodipodi:type="inkscape:offset"
       inkscape:radius="0"
       inkscape:original="M 16.933594 0.61914062 L 15.748047 1.8359375 L 12.933594 2.5390625 L 15.738281 3.8144531 L 15.902344 6.8496094 L 14.392578 7.0253906 L 14.716797 4.9023438 L 13.464844 6.9160156 L 10.611328 5.4511719 L 13.148438 7.9101562 L 13.5625 9.7089844 L 14.085938 7.9472656 L 15.505859 8.328125 L 15.6875 10.242188 L 14.105469 11.083984 L 15.740234 11.962891 L 15.917969 15.173828 L 16.933594 16.933594 L 16.933594 0.61914062 z "
       xlink:href="#path6"
       id="path13"
       inkscape:href="#path6"
       d="m 14.630859,-2.9140625 -3.30664,1.97460938 2.318359,0.45703124 0.333984,4.08984378 -1.886718,-0.1152344 -0.558594,-2.453125 -0.367188,2.34375 -1.136718,-0.2695313 0.818359,1.2617188 0.601563,2.2246094 0.183593,-1.7675782 1.572266,-0.039062 0.181641,1.9140624 -1.046875,-0.1210937 1.277343,5.0527345 1.015625,1.761719 z"
       transform="rotate(120,16.933332,16.933333)" />
    <path
       style="fill:url(#linearGradient28);stroke-width:0.264583;fill-opacity:1"
       sodipodi:type="inkscape:offset"
       inkscape:radius="0"
       inkscape:original="M 16.933594 0.61914062 L 15.748047 1.8359375 L 12.933594 2.5390625 L 15.738281 3.8144531 L 15.902344 6.8496094 L 14.392578 7.0253906 L 14.716797 4.9023438 L 13.464844 6.9160156 L 10.611328 5.4511719 L 13.148438 7.9101562 L 13.5625 9.7089844 L 14.085938 7.9472656 L 15.505859 8.328125 L 15.6875 10.242188 L 14.105469 11.083984 L 15.740234 11.962891 L 15.917969 15.173828 L 16.933594 16.933594 L 16.933594 0.61914062 z "
       xlink:href="#path6"
       id="path14"
       inkscape:href="#path6"
       d="m 14.630859,-2.9140625 -3.30664,1.97460938 2.318359,0.45703124 0.333984,4.08984378 -1.886718,-0.1152344 -0.558594,-2.453125 -0.367188,2.34375 -1.136718,-0.2695313 0.818359,1.2617188 0.601563,2.2246094 0.183593,-1.7675782 1.572266,-0.039062 0.181641,1.9140624 -1.046875,-0.1210937 1.277343,5.0527345 1.015625,1.761719 z"
       transform="matrix(0.5,-0.8660254,-0.8660254,-0.5,23.131124,40.064634)" />
    <path
       style="fill:url(#linearGradient27);stroke-width:0.264583;fill-opacity:1"
       sodipodi:type="inkscape:offset"
       inkscape:radius="0"
       inkscape:original="M 16.933594 0.61914062 L 15.748047 1.8359375 L 12.933594 2.5390625 L 15.738281 3.8144531 L 15.902344 6.8496094 L 14.392578 7.0253906 L 14.716797 4.9023438 L 13.464844 6.9160156 L 10.611328 5.4511719 L 13.148438 7.9101562 L 13.5625 9.7089844 L 14.085938 7.9472656 L 15.505859 8.328125 L 15.6875 10.242188 L 14.105469 11.083984 L 15.740234 11.962891 L 15.917969 15.173828 L 16.933594 16.933594 L 16.933594 0.61914062 z "
       xlink:href="#path6"
       id="path15"
       inkscape:href="#path6"
       d="m 14.630859,-2.9140625 -3.30664,1.97460938 2.318359,0.45703124 0.333984,4.08984378 -1.886718,-0.1152344 -0.558594,-2.453125 -0.367188,2.34375 -1.136718,-0.2695313 0.818359,1.2617188 0.601563,2.2246094 0.183593,-1.7675782 1.572266,-0.039062 0.181641,1.9140624 -1.046875,-0.1210937 1.277343,5.0527345 1.015625,1.761719 z"
       transform="rotate(180,16.932846,16.933087)" />
    <path
       style="fill:url(#linearGradient26);stroke-width:0.264583;fill-opacity:1"
       sodipodi:type="inkscape:offset"
       inkscape:radius="0"
       inkscape:original="M 16.933594 0.61914062 L 15.748047 1.8359375 L 12.933594 2.5390625 L 15.738281 3.8144531 L 15.902344 6.8496094 L 14.392578 7.0253906 L 14.716797 4.9023438 L 13.464844 6.9160156 L 10.611328 5.4511719 L 13.148438 7.9101562 L 13.5625 9.7089844 L 14.085938 7.9472656 L 15.505859 8.328125 L 15.6875 10.242188 L 14.105469 11.083984 L 15.740234 11.962891 L 15.917969 15.173828 L 16.933594 16.933594 L 16.933594 0.61914062 z "
       xlink:href="#path6"
       id="path16"
       inkscape:href="#path6"
       d="m 14.630859,-2.9140625 -3.30664,1.97460938 2.318359,0.45703124 0.333984,4.08984378 -1.886718,-0.1152344 -0.558594,-2.453125 -0.367188,2.34375 -1.136718,-0.2695313 0.818359,1.2617188 0.601563,2.2246094 0.183593,-1.7675782 1.572266,-0.039062 0.181641,1.9140624 -1.046875,-0.1210937 1.277343,5.0527345 1.015625,1.761719 z"
       transform="matrix(1,0,0,-1,-3.233e-4,33.867092)" />
    <path
       style="fill:url(#linearGradient25);stroke-width:0.264583;fill-opacity:1"
       sodipodi:type="inkscape:offset"
       inkscape:radius="0"
       inkscape:original="M 16.933594 0.61914062 L 15.748047 1.8359375 L 12.933594 2.5390625 L 15.738281 3.8144531 L 15.902344 6.8496094 L 14.392578 7.0253906 L 14.716797 4.9023438 L 13.464844 6.9160156 L 10.611328 5.4511719 L 13.148438 7.9101562 L 13.5625 9.7089844 L 14.085938 7.9472656 L 15.505859 8.328125 L 15.6875 10.242188 L 14.105469 11.083984 L 15.740234 11.962891 L 15.917969 15.173828 L 16.933594 16.933594 L 16.933594 0.61914062 z "
       xlink:href="#path6"
       id="path17"
       inkscape:href="#path6"
       d="m 14.630859,-2.9140625 -3.30664,1.97460938 2.318359,0.45703124 0.333984,4.08984378 -1.886718,-0.1152344 -0.558594,-2.453125 -0.367188,2.34375 -1.136718,-0.2695313 0.818359,1.2617188 0.601563,2.2246094 0.183593,-1.7675782 1.572266,-0.039062 0.181641,1.9140624 -1.046875,-0.1210937 1.277343,5.0527345 1.015625,1.761719 z"
       transform="rotate(-120,16.933753,16.933248)" />
    <path
       style="fill:url(#linearGradient24);stroke-width:0.264583;fill-opacity:1"
       sodipodi:type="inkscape:offset"
       inkscape:radius="0"
       inkscape:original="M 16.933594 0.61914062 L 15.748047 1.8359375 L 12.933594 2.5390625 L 15.738281 3.8144531 L 15.902344 6.8496094 L 14.392578 7.0253906 L 14.716797 4.9023438 L 13.464844 6.9160156 L 10.611328 5.4511719 L 13.148438 7.9101562 L 13.5625 9.7089844 L 14.085938 7.9472656 L 15.505859 8.328125 L 15.6875 10.242188 L 14.105469 11.083984 L 15.740234 11.962891 L 15.917969 15.173828 L 16.933594 16.933594 L 16.933594 0.61914062 z "
       xlink:href="#path6"
       id="path18"
       inkscape:href="#path6"
       d="m 14.630859,-2.9140625 -3.30664,1.97460938 2.318359,0.45703124 0.333984,4.08984378 -1.886718,-0.1152344 -0.558594,-2.453125 -0.367188,2.34375 -1.136718,-0.2695313 0.818359,1.2617188 0.601563,2.2246094 0.183593,-1.7675782 1.572266,-0.039062 0.181641,1.9140624 -1.046875,-0.1210937 1.277343,5.0527345 1.015625,1.761719 z"
       transform="matrix(0.5,0.8660254,0.8660254,-0.5,-6.1987486,10.736421)" />
    <path
       style="fill:url(#linearGradient23);stroke-width:0.264583;fill-opacity:1"
       sodipodi:type="inkscape:offset"
       inkscape:radius="0"
       inkscape:original="M 16.933594 0.61914062 L 15.748047 1.8359375 L 12.933594 2.5390625 L 15.738281 3.8144531 L 15.902344 6.8496094 L 14.392578 7.0253906 L 14.716797 4.9023438 L 13.464844 6.9160156 L 10.611328 5.4511719 L 13.148438 7.9101562 L 13.5625 9.7089844 L 14.085938 7.9472656 L 15.505859 8.328125 L 15.6875 10.242188 L 14.105469 11.083984 L 15.740234 11.962891 L 15.917969 15.173828 L 16.933594 16.933594 L 16.933594 0.61914062 z "
       xlink:href="#path6"
       id="path19"
       inkscape:href="#path6"
       d="m 14.630859,-2.9140625 -3.30664,1.97460938 2.318359,0.45703124 0.333984,4.08984378 -1.886718,-0.1152344 -0.558594,-2.453125 -0.367188,2.34375 -1.136718,-0.2695313 0.818359,1.2617188 0.601563,2.2246094 0.183593,-1.7675782 1.572266,-0.039062 0.181641,1.9140624 -1.046875,-0.1210937 1.277343,5.0527345 1.015625,1.761719 z"
       transform="rotate(-60,16.932069,16.933479)" />
    <path
       style="fill:url(#linearGradient22);stroke-width:0.264583;fill-opacity:1"
       sodipodi:type="inkscape:offset"
       inkscape:radius="0"
       inkscape:original="M 16.933594 0.61914062 L 15.748047 1.8359375 L 12.933594 2.5390625 L 15.738281 3.8144531 L 15.902344 6.8496094 L 14.392578 7.0253906 L 14.716797 4.9023438 L 13.464844 6.9160156 L 10.611328 5.4511719 L 13.148438 7.9101562 L 13.5625 9.7089844 L 14.085938 7.9472656 L 15.505859 8.328125 L 15.6875 10.242188 L 14.105469 11.083984 L 15.740234 11.962891 L 15.917969 15.173828 L 16.933594 16.933594 L 16.933594 0.61914062 z "
       xlink:href="#path6"
       id="path20"
       inkscape:href="#path6"
       d="m 14.630859,-2.9140625 -3.30664,1.97460938 2.318359,0.45703124 0.333984,4.08984378 -1.886718,-0.1152344 -0.558594,-2.453125 -0.367188,2.34375 -1.136718,-0.2695313 0.818359,1.2617188 0.601563,2.2246094 0.183593,-1.7675782 1.572266,-0.039062 0.181641,1.9140624 -1.046875,-0.1210937 1.277343,5.0527345 1.015625,1.761719 z"
       transform="matrix(-0.5,0.8660254,0.8660254,0.5,10.736018,-6.1982935)" />
    <path
       style="fill:url(#linearGradient21);fill-opacity:1;stroke-width:0.264583"
       d="m 16.933332,0.61984855 -1.184762,1.21533255 -2.814746,0.7047086 2.804809,1.2748599 0.164222,3.0349199 -1.511149,0.1758647 0.324694,-2.123382 -1.250674,2.0137945 -2.854567,-1.4646139 2.53693,2.4581886 0.41432,1.8002669 0.523194,-1.761554 1.419524,0.3790193 0.181801,1.9143094 -1.58113,0.84155 1.634625,0.880251 0.176779,3.20998 1.01613,1.759989 z"
       id="path6"
       inkscape:transform-center-x="2.3021795"
       inkscape:transform-center-y="-8.1567421"
       sodipodi:nodetypes="ccccccccccccccccccc" />
  </g>
</svg>
